<?xml version="1.0" encoding="utf-8"?>
<svg viewBox="268.392 149.628 169 75.326" width="169" height="75.326" xmlns="http://www.w3.org/2000/svg">
  <path d="M 299.102 198.106 C 291.57 198.106 286.355 203.321 286.355 211.24 C 286.355 220.125 292.922 224.76 300.841 224.76 C 304.51 224.76 307.601 223.601 308.953 222.829 L 309.918 217.421 L 309.339 217.421 C 308.18 218.386 305.283 219.352 302 219.352 C 296.978 219.352 294.081 217.034 293.308 212.785 L 310.498 212.785 C 310.884 211.819 311.077 210.274 311.077 208.922 C 310.884 202.549 306.056 198.106 299.102 198.106 Z M 293.115 208.729 C 293.694 205.059 296.012 203.321 299.102 203.321 C 302.386 203.321 304.317 205.059 304.317 208.729 L 293.115 208.729 Z" fill="#72308F" transform="matrix(1, 0, 0, 1, -7.105427357601002e-15, 0)"/>
  <path d="M 347.774 198.107 C 344.104 198.107 341.593 199.652 339.855 201.776 L 339.855 186.904 L 338.117 186.904 L 332.902 189.802 L 332.902 223.988 L 339.855 223.988 L 339.855 206.412 C 340.628 205.253 342.752 203.708 345.263 203.708 C 348.16 203.708 349.898 205.253 349.898 208.923 L 349.898 223.795 L 357.045 223.795 L 357.045 208.15 C 357.045 201.776 353.375 198.107 347.774 198.107 Z" fill="#72308F" transform="matrix(1, 0, 0, 1, -7.105427357601002e-15, 0)"/>
  <path d="M 374.042 198.106 C 366.509 198.106 361.294 203.321 361.294 211.24 C 361.294 220.125 367.861 224.76 375.78 224.76 C 379.45 224.76 382.54 223.601 383.892 222.829 L 384.858 217.421 L 384.085 217.421 C 382.926 218.386 380.029 219.352 376.746 219.352 C 371.724 219.352 368.827 217.034 368.054 212.785 L 385.244 212.785 C 385.63 211.819 385.823 210.274 385.823 208.922 C 385.823 202.549 380.995 198.106 374.042 198.106 Z M 368.054 208.729 C 368.634 205.059 370.951 203.321 374.042 203.321 C 377.325 203.321 379.257 205.059 379.257 208.729 L 368.054 208.729 Z" fill="#72308F" transform="matrix(1, 0, 0, 1, -7.105427357601002e-15, 0)"/>
  <path d="M 396.832 204.287 L 396.832 198.879 L 395.094 198.879 L 390.652 201.39 L 390.652 224.181 L 397.605 224.181 L 397.605 208.729 C 399.15 206.798 402.047 205.446 404.751 205.446 C 405.524 205.446 406.296 205.639 406.876 205.832 L 407.455 205.832 L 406.296 198.3 C 402.433 198.493 398.764 200.617 396.832 204.287 Z" fill="#72308F" transform="matrix(1, 0, 0, 1, -7.105427357601002e-15, 0)"/>
  <path d="M 421.94 186.711 C 415.953 186.711 411.897 190.574 411.897 196.175 L 411.897 200.424 L 407.454 203.901 L 407.454 204.867 L 411.897 204.867 L 411.897 224.181 L 418.85 224.181 L 418.85 204.867 L 425.03 204.867 L 426.189 199.265 L 418.85 199.265 L 418.85 196.368 C 418.85 193.471 420.975 192.312 423.485 192.312 C 424.837 192.312 425.803 192.699 426.189 192.892 L 426.769 192.892 L 425.803 187.484 C 425.224 187.097 423.678 186.711 421.94 186.711 Z" fill="#72308F" transform="matrix(1, 0, 0, 1, -7.105427357601002e-15, 0)"/>
  <path d="M 437.392 198.88 L 430.632 198.88 L 430.632 224.181 L 437.392 224.181 L 437.392 198.88 Z" fill="#72308F" transform="matrix(1, 0, 0, 1, -7.105427357601002e-15, 0)"/>
  <path d="M 283.264 204.481 L 284.423 198.88 L 275.345 198.88 L 275.345 193.085 L 273.607 193.085 L 268.392 195.983 L 268.392 215.49 C 268.392 222.829 273.414 224.954 278.049 224.954 C 280.174 224.954 281.912 224.568 283.071 223.795 L 284.037 218.194 L 283.65 218.194 C 282.878 218.773 281.333 219.353 279.788 219.353 C 276.89 219.353 275.538 217.808 275.538 214.717 L 275.538 204.481 L 283.264 204.481 Z" fill="#72308F" transform="matrix(1, 0, 0, 1, -7.105427357601002e-15, 0)"/>
  <path d="M 328.46 204.481 L 329.619 198.88 L 320.734 198.88 L 320.734 193.085 L 318.996 193.085 L 313.781 195.983 L 313.781 215.49 C 313.781 222.829 318.803 224.954 323.438 224.954 C 325.563 224.954 327.301 224.568 328.46 223.795 L 329.425 218.194 L 328.846 218.194 C 328.073 218.773 326.528 219.353 324.983 219.353 C 322.086 219.353 320.734 217.808 320.734 214.717 L 320.734 204.481 L 328.46 204.481 Z" fill="#72308F" transform="matrix(1, 0, 0, 1, -7.105427357601002e-15, 0)"/>
  <path d="M 371.917 173.578 L 378.871 177.634 L 382.347 175.509 L 382.347 167.59 L 371.917 173.578 Z" fill="#72308F" transform="matrix(1, 0, 0, 1, -7.105427357601002e-15, 0)"/>
  <path d="M 399.537 157.74 L 389.3 163.727 L 389.3 182.655 L 396.06 178.599 L 396.06 167.59 L 406.49 161.603 L 399.537 157.74 Z" fill="#72308F" transform="matrix(1, 0, 0, 1, -7.105427357601002e-15, 0)"/>
  <path d="M 406.49 153.684 L 399.537 149.628 L 399.537 157.74 L 406.49 161.603 L 406.49 153.684 Z" fill="#E01D40" transform="matrix(1, 0, 0, 1, -7.105427357601002e-15, 0)"/>
</svg>